<?xml version="1.0" standalone="no"?>
<!DOCTYPE svg PUBLIC "-//W3C//DTD SVG 20010904//EN"
 "http://www.w3.org/TR/2001/REC-SVG-20010904/DTD/svg10.dtd">
<svg version="1.0" xmlns="http://www.w3.org/2000/svg"
 width="700.000000pt" height="700.000000pt" viewBox="0 0 700.000000 700.000000"
 preserveAspectRatio="xMidYMid meet">
<metadata>
Created by potrace 1.14, written by Peter Selinger 2001-2017
</metadata>
<g transform="translate(0.000000,700.000000) scale(0.100000,-0.100000)"
fill="#000000" stroke="none">
<path d="M3492 6958 c1 -7 -1 -35 -6 -63 -4 -27 -9 -61 -11 -75 -2 -14 -11
-81 -20 -150 -9 -69 -18 -138 -20 -154 -3 -16 -16 -115 -30 -220 -15 -105 -28
-202 -30 -216 -2 -14 -7 -47 -10 -75 -3 -27 -7 -61 -10 -75 -2 -14 -6 -47 -10
-75 -3 -27 -10 -77 -15 -110 -5 -33 -12 -82 -15 -110 -4 -27 -8 -61 -10 -75
-2 -14 -6 -45 -10 -70 -3 -25 -8 -56 -10 -70 -3 -14 -7 -52 -10 -85 -3 -33 -8
-67 -10 -75 -2 -8 -7 -39 -10 -69 -4 -30 -8 -61 -10 -70 -1 -9 -6 -45 -10 -81
-4 -36 -8 -67 -10 -70 -2 -3 -6 -37 -10 -75 -4 -39 -9 -73 -12 -78 -2 -4 -66
86 -141 200 -75 114 -227 343 -337 510 -110 166 -319 483 -464 703 -145 220
-266 398 -268 396 -2 -2 5 -28 16 -57 11 -30 47 -142 81 -249 34 -107 79 -247
100 -310 21 -63 88 -270 150 -460 61 -190 120 -370 130 -400 10 -30 37 -113
60 -185 22 -71 45 -139 49 -150 17 -39 83 -257 79 -260 -3 -3 -143 78 -198
115 -8 6 -22 13 -30 17 -8 4 -57 33 -108 65 -51 32 -97 58 -101 58 -5 0 -19 8
-32 19 -13 10 -40 27 -59 38 -57 32 -512 303 -550 328 -33 21 -429 257 -495
295 -16 9 -82 49 -146 88 -127 77 -159 94 -159 89 0 -1 33 -37 73 -78 125
-130 432 -452 483 -506 27 -28 87 -91 134 -140 168 -175 497 -519 595 -622
126 -132 121 -126 179 -189 l49 -52 -59 5 c-32 3 -77 7 -99 10 -22 2 -76 7
-120 10 -44 3 -94 8 -111 10 -17 3 -65 7 -105 10 -41 3 -89 7 -107 9 -17 3
-71 7 -120 11 -48 4 -98 8 -112 10 -14 2 -59 6 -100 10 -41 3 -95 8 -120 10
-25 3 -67 7 -95 9 -109 10 -202 18 -235 21 -117 11 -172 16 -225 20 -33 3 -78
7 -100 10 -22 2 -71 7 -110 10 -38 3 -88 8 -110 10 -22 2 -80 7 -130 11 -50 3
-93 8 -97 11 -5 2 -8 0 -8 -5 0 -4 93 -43 208 -86 114 -42 223 -83 242 -91 19
-8 283 -107 585 -220 303 -113 559 -210 570 -215 11 -5 47 -18 80 -30 33 -11
69 -25 80 -30 11 -5 49 -19 85 -31 36 -12 70 -25 75 -29 6 -3 29 -12 53 -20
23 -7 42 -16 42 -20 0 -6 -353 -141 -720 -274 -41 -16 -84 -32 -95 -36 -11 -5
-49 -20 -85 -33 -36 -13 -121 -45 -190 -71 -69 -26 -150 -56 -180 -67 -30 -12
-64 -24 -75 -29 -42 -17 -460 -174 -590 -221 -77 -29 -120 -52 -79 -45 10 2
57 7 104 11 101 8 125 10 210 18 36 4 97 9 135 13 39 3 86 7 105 9 36 4 147
13 235 20 28 2 70 7 95 9 49 6 120 13 217 21 35 3 91 8 126 11 80 8 124 11
222 19 44 3 96 8 115 10 19 2 64 7 100 10 36 3 81 8 100 10 19 2 71 6 115 10
44 3 100 7 125 10 25 3 69 7 99 10 l54 6 -34 -38 c-19 -21 -48 -52 -64 -69
-32 -32 -318 -331 -424 -442 -35 -37 -143 -150 -241 -252 -97 -102 -194 -203
-215 -225 -20 -22 -112 -119 -205 -215 -272 -284 -329 -345 -325 -348 1 -1 46
24 99 58 54 33 99 60 102 60 3 0 17 9 32 19 15 10 185 112 377 227 193 114
530 315 750 447 220 132 415 248 433 259 18 10 44 26 58 34 13 9 24 12 24 7 0
-5 -23 -79 -50 -164 -28 -85 -70 -215 -94 -289 -59 -181 -279 -856 -415 -1274
-61 -187 -109 -341 -107 -343 3 -3 105 150 531 797 89 135 241 366 338 513 98
147 212 322 255 387 42 65 80 119 83 119 3 1 6 -5 6 -11 0 -18 10 -98 33 -257
10 -75 21 -158 25 -186 8 -60 12 -92 20 -148 3 -23 8 -62 11 -87 6 -50 8 -60
24 -175 18 -131 20 -149 25 -175 2 -14 9 -68 15 -120 6 -52 15 -120 20 -150 5
-30 11 -75 14 -100 9 -75 51 -383 61 -445 3 -16 7 -55 11 -85 3 -30 12 -91 19
-135 7 -44 10 -84 7 -90 -3 -7 -1 -7 6 0 5 6 12 35 15 65 3 30 15 120 26 200
12 80 23 161 25 180 5 39 35 262 41 300 2 14 7 52 11 85 3 33 8 69 10 80 2 11
11 74 19 140 9 66 18 131 20 145 2 14 6 44 9 68 15 110 18 133 31 222 8 52 17
122 20 155 3 33 8 67 10 75 2 8 7 40 10 70 3 30 8 67 10 81 3 14 7 41 9 60 3
19 10 75 17 124 6 50 12 96 12 103 0 6 3 12 6 11 3 0 83 -118 178 -262 94
-144 295 -449 445 -677 463 -701 524 -793 552 -838 51 -81 55 -97 -129 468
-40 124 -126 387 -190 585 -64 198 -161 497 -216 664 -55 167 -98 307 -97 311
2 4 35 -11 73 -34 172 -104 622 -372 640 -382 28 -15 124 -73 165 -99 32 -21
422 -253 495 -295 17 -10 140 -83 275 -164 213 -128 240 -142 205 -105 -75 79
-110 116 -220 230 -176 184 -465 486 -558 584 -47 50 -118 124 -159 166 -40
42 -152 159 -248 260 -96 100 -195 204 -220 230 -25 25 -54 56 -64 68 l-19 21
64 -5 c35 -3 82 -8 104 -10 22 -2 72 -7 110 -10 39 -3 88 -8 110 -10 36 -4 76
-8 215 -19 75 -7 183 -17 225 -21 22 -2 76 -7 120 -10 44 -3 94 -8 110 -10 17
-2 66 -7 110 -10 44 -4 96 -8 115 -10 19 -2 71 -7 115 -10 44 -4 90 -8 102
-10 12 -2 66 -7 120 -10 54 -4 107 -9 118 -11 11 -2 54 -6 95 -9 41 -3 93 -7
115 -10 22 -3 74 -7 115 -10 41 -3 89 -8 105 -11 l30 -5 -27 14 c-14 8 -43 20
-65 27 -39 13 -461 170 -523 195 -19 8 -145 56 -280 106 -331 123 -330 123
-622 233 -141 53 -260 96 -263 96 -3 0 -24 9 -48 19 -23 11 -84 34 -134 52
-82 29 -115 49 -82 49 6 0 25 6 42 14 18 7 55 21 82 31 28 10 64 23 80 30 17
7 201 77 410 154 209 78 387 145 395 148 8 3 35 14 60 23 349 128 947 355 954
361 5 5 -2 6 -15 4 -13 -2 -55 -6 -94 -9 -128 -10 -200 -16 -245 -22 -25 -3
-70 -7 -100 -9 -30 -2 -80 -6 -110 -9 -103 -11 -155 -16 -225 -21 -38 -3 -90
-8 -115 -10 -25 -2 -74 -7 -110 -10 -36 -3 -85 -8 -110 -10 -25 -3 -74 -7
-110 -10 -36 -3 -83 -7 -105 -9 -22 -3 -71 -7 -110 -10 -38 -4 -90 -8 -115
-11 -25 -2 -72 -7 -105 -9 -33 -3 -91 -8 -130 -11 -38 -4 -86 -8 -105 -10 -19
-3 -66 -7 -105 -10 -38 -3 -92 -8 -120 -11 l-49 -6 35 39 c19 21 84 89 144
152 114 119 143 148 285 298 47 48 173 180 280 292 107 113 211 221 230 241
19 20 118 124 220 230 102 106 201 210 220 230 19 21 53 56 75 79 35 37 12 26
-190 -95 -126 -75 -247 -148 -267 -161 -21 -12 -40 -23 -43 -23 -4 0 -21 -11
-39 -25 -18 -14 -35 -25 -39 -25 -3 0 -56 -31 -119 -69 -297 -180 -1157 -691
-1162 -691 -3 0 -2 8 3 18 6 9 24 62 41 117 45 146 268 833 286 883 9 23 17
48 18 55 1 6 51 161 110 342 60 182 132 404 162 494 29 91 52 166 50 168 -3 3
-154 -224 -501 -752 -76 -115 -248 -376 -383 -580 -134 -203 -261 -396 -281
-427 -31 -50 -55 -74 -49 -50 2 9 -10 119 -27 232 -4 25 -8 56 -10 70 -3 23
-11 79 -20 140 -2 14 -7 46 -10 72 -3 26 -10 80 -15 120 -6 40 -12 89 -15 108
-2 19 -14 103 -25 185 -26 191 -30 214 -35 261 -5 42 -25 184 -40 287 -2 17
-9 70 -15 117 -6 47 -13 96 -15 110 -2 14 -6 45 -10 70 -3 25 -8 61 -10 80 -3
19 -8 53 -10 75 -6 48 -16 114 -20 135 -2 8 -4 32 -4 53 -1 20 -6 37 -11 37
-6 0 -10 -6 -8 -12z"/>
</g>
</svg>
